<svg width="32" height="32" viewBox="0 0 32 32" fill="none" xmlns="http://www.w3.org/2000/svg">
  <!-- Simplified favicon version -->
  <defs>
    <linearGradient id="favGrad" x1="0%" y1="0%" x2="100%" y2="100%">
      <stop offset="0%" style="stop-color:#1F8EF1;stop-opacity:1" />
      <stop offset="100%" style="stop-color:#2ECC71;stop-opacity:1" />
    </linearGradient>
  </defs>
  
  <!-- Simplified Genie Lamp -->
  <g>
    <!-- Lamp body -->
    <path d="M 16 21 Q 13 21 12 19 Q 11 18 11 16 L 11 12 Q 11 11 12 10 Q 13 9 16 9 Q 19 9 20 10 Q 21 11 21 12 L 21 16 Q 21 18 20 19 Q 19 21 16 21 Z" 
          fill="url(#favGrad)"/>
    
    <!-- Lamp base -->
    <ellipse cx="16" cy="21" rx="6" ry="1.5" fill="url(#favGrad)" opacity="0.7"/>
    
    <!-- Spout -->
    <path d="M 21 13 Q 23 13 24 12 Q 24 11 23 10 Q 21 10 21 10 Z" fill="url(#favGrad)"/>
    
    <!-- Handle -->
    <path d="M 11 13 Q 9 13 8 12 Q 8 11 9 10 Q 11 10 11 10 Z" fill="url(#favGrad)"/>
  </g>
  
  <!-- Shopping bag mini -->
  <g opacity="0.8">
    <rect x="13" y="7" width="6" height="7" rx="0.5" fill="url(#favGrad)" opacity="0.3"/>
    <path d="M 14 7 L 14 6 Q 14 5 16 5 Q 18 5 18 6 L 18 7" 
          stroke="url(#favGrad)" stroke-width="1" fill="none"/>
  </g>
  
  <!-- Sparkle -->
  <circle cx="12" cy="6" r="0.8" fill="url(#favGrad)"/>
  <circle cx="20" cy="7" r="1" fill="url(#favGrad)"/>
  <circle cx="14" cy="23" r="0.7" fill="url(#favGrad)"/>
  <circle cx="18" cy="23" r="0.8" fill="url(#favGrad)"/>
</svg>
